<svg xmlns="http://www.w3.org/2000/svg" width="64" height="64" viewBox="0 0 64 64">
  <rect width="64" height="64" rx="14" fill="#c4332a"/>
  <svg x="10" y="10" width="44" height="44" viewBox="0 0 1357 1359" fillRule="evenodd" clipRule="evenodd" strokeLinecap="round" color="#ffffff">
    <g transform="matrix(1,0,0,1,-275.120945,-300.573622)">
      <g transform="matrix(4.166667,0,0,4.166667,-200.688419,66.649718)">
        <g transform="matrix(-0.820411,-0.133349,0.137495,-0.841845,284.005167,211.159812)">
          <g transform="matrix(0.882871,-0.043677,0.049141,0.938826,2.36602,-3.904503)">
            <path d="M-103,-18C-93.994,-67.765 -50.251,-104.302 0.322,-104.302C34.347,-104.302 66.107,-89.401 85.776,-61.638" fill="none" stroke="currentColor" strokeWidth="53.33"/>
          </g>
          <g transform="matrix(0.786046,-0.822179,0.78466,0.747672,78.879418,-70.426218)">
            <path d="M-46.743,-21.276C-47.375,-22.192 -47.477,-23.391 -47.009,-24.384C-46.541,-25.377 -45.579,-26 -44.515,-26L44.69,-26C45.701,-26 46.64,-25.401 47.117,-24.452C47.594,-23.502 47.528,-22.364 46.947,-21.508C37.788,-8.035 10.684,31.84 2.635,43.682C2.107,44.458 1.25,44.911 0.332,44.899C-0.586,44.887 -1.453,44.411 -1.998,43.62C-10.168,31.771 -37.317,-7.605 -46.743,-21.276Z" fill="currentColor"/>
          </g>
        </g>
        <g transform="matrix(0.823576,0.112266,-0.115757,0.845093,270.502904,227.260802)">
          <g transform="matrix(0.882871,-0.043677,0.049141,0.938826,2.36602,-3.904503)">
            <path d="M-103,-18C-93.994,-67.765 -50.251,-104.302 0.322,-104.302C34.347,-104.302 66.107,-89.401 85.776,-61.638" fill="none" stroke="currentColor" strokeWidth="53.32"/>
          </g>
          <g transform="matrix(0.786046,-0.822179,0.78466,0.747672,78.879418,-70.426218)">
            <path d="M-46.743,-21.276C-47.375,-22.193 -47.478,-23.391 -47.009,-24.384C-46.541,-25.377 -45.579,-26 -44.515,-26L44.69,-26C45.701,-26 46.64,-25.401 47.117,-24.452C47.594,-23.502 47.528,-22.364 46.947,-21.509C37.789,-8.036 10.685,31.839 2.635,43.681C2.107,44.457 1.25,44.91 0.332,44.898C-0.586,44.886 -1.453,44.411 -1.998,43.62C-10.168,31.77 -37.318,-7.606 -46.743,-21.276Z" fill="currentColor"/>
          </g>
        </g>
      </g>
    </g>
  </svg>
</svg>
